# xmcd
#
# Track frame offsets:
#  150
#  15378
#  36319
#  66273
#
# Disc length: 1342 seconds
#
# Revision: 0
# Processed by: cddbd v1.5.1PL2 Copyright (c) Steve Scherf et al.
# Submitted via: Collectorz.com_Music_Collector 6.9
#
DISCID=2c053c04
DTITLE=Milk Inc - Livin' A Lie
DYEAR=2001
DGENRE=Dance
TTITLE0=Livin' A Lie (Video Mix)
TTITLE1=Livin' A Lie (Extended)
TTITLE2=Livin' A Lie (Kevin Marshall Remix)
TTITLE3=Livin' A Lie (Peter Luts Remix)
EXTD=
EXTT0=
EXTT1=
EXTT2=
EXTT3=
PLAYORDER=
